<?xml version="1.0" encoding="utf-8"?>
<!-- Generator: Adobe Illustrator 24.2.1, SVG Export Plug-In . SVG Version: 6.00 Build 0)  -->
<svg version="1.1" id="Layer_1" xmlns="http://www.w3.org/2000/svg" xmlns:xlink="http://www.w3.org/1999/xlink" x="0px" y="0px"
	 viewBox="0 0 3078 458" style="enable-background:new 0 0 3078 458;" xml:space="preserve">
<style type="text/css">
	.st0{fill-rule:evenodd;clip-rule:evenodd;fill:#FF0000;}
	.st1{fill-rule:evenodd;clip-rule:evenodd;fill:#A0A0A0;}
	.st2{fill-rule:evenodd;clip-rule:evenodd;fill:#F9F9F9;}
	.st3{fill:#FFFFFF;}
</style>
<g id="Page-1">
	<g id="VzBot" transform="translate(-0.067330, 0.161190)">
		<path id="Path" class="st0" d="M0,0l362.7,339.7L726.7,0c-80.7,0-126,0-135.9,0c-14.8,0-22.5,3.6-32.6,12.5
			s-149.7,139-162.6,151.6s-40.1,12.6-52.3,1C331.1,153.6,182.1,14.9,176.7,10.3C171.3,5.7,163,0,150.2,0C141.6,0,91.6,0,0,0z"/>
		<path id="Path-2" class="st1" d="M246.9,2c5.9,0,192.6,0,198.7,0s8.6,4.5,4.8,8S365.8,90,359,96.5c-6.9,6.5-17,6.5-25.2-1.1
			S244.9,13,241.9,9.5C238.9,6.1,241,2,246.9,2z"/>
		<path id="Path-3" class="st1" d="M879.8,0.3c1,0,11.7,0,32,0c30.5,0,51,44.4,26,68.8c-25,24.4-387.8,362.3-403.6,377.4
			c-15.8,15-40.9,12.4-51.4,3.6c-7-5.8-21.3-19.1-42.9-39.7L879.8,0.3z"/>
		<polygon id="Path-4" class="st2" points="726.7,0 362.7,339.7 439.9,410.5 879.8,0.3 		"/>
	</g>
</g>
<g>
	<g>
		<path class="st3" d="M1289.2,454.8L1139.1,4h87.4l95.8,300.8L1418.2,4h87.4l-150.1,450.8H1289.2z"/>
		<path class="st3" d="M1826.2,4v76.3L1640.8,373h191.6v81.9h-292.7v-76.3l185.4-292.7h-179.8V4H1826.2z"/>
		<path class="st3" d="M1903.7,454.8V4h85v450.8H1903.7z M1940.9,454.8V373h143.9c19.4,0,34.5-4.7,45.1-14.1
			c10.6-9.4,16-22.6,16-39.5v-0.9c0-17.2-5.3-30.4-16-39.8c-10.6-9.4-25.7-14.1-45.1-14.1h-143.9v-81.9h143.9
			c17.6,0,31.2-4.4,40.8-13.3c9.6-8.9,14.4-21.4,14.4-37.5c0-14.7-4.8-26-14.4-34c-9.6-8-23.2-11.9-40.8-11.9h-143.9V4h146.7
			c43.8,0,77.8,10.6,101.9,31.9c24.1,21.3,36.1,51.4,36.1,90.2c0,26.3-7.7,47.9-23.1,65c-15.4,17.1-37.2,28-65.3,32.7
			c30,4.1,53.2,15.6,69.6,34.3c16.4,18.7,24.7,43,24.7,73v0.9c0,39.1-12.1,69.3-36.3,90.7c-24.2,21.4-58.3,32.1-102.3,32.1H1940.9z"
			/>
		<path class="st3" d="M2468.9,459.5c-33.1,0-62-6.9-86.7-20.6c-24.7-13.7-43.9-33.1-57.5-58.1c-13.6-25-20.5-54.2-20.5-87.4V165.5
			c0-33.5,6.8-62.7,20.5-87.6c13.6-24.9,32.8-44.2,57.5-58c24.7-13.7,53.6-20.6,86.7-20.6c33.1,0,62,6.9,86.7,20.6
			c24.7,13.7,43.9,33.1,57.5,58c13.6,24.9,20.5,54.1,20.5,87.6v127.7c0,33.3-6.8,62.4-20.5,87.4c-13.6,25-32.8,44.4-57.5,58.1
			C2530.9,452.6,2502,459.5,2468.9,459.5z M2468.9,374.5c23.1,0,41.7-7.2,55.7-21.7c14-14.5,20.9-33.6,20.9-57.4V163.4
			c0-24-7-43.1-20.9-57.5c-14-14.4-32.5-21.5-55.7-21.5c-23.2,0-41.7,7.2-55.7,21.5c-14,14.4-20.9,33.5-20.9,57.5v132.1
			c0,23.8,7,42.9,20.9,57.4C2427.2,367.3,2445.8,374.5,2468.9,374.5z"/>
		<path class="st3" d="M2661.5,85.9V4H2992v81.9H2661.5z M2784.3,454.8V40.9h85v413.9H2784.3z"/>
	</g>
</g>
</svg>
